<svg width="538" height="151" viewBox="0 0 538 151" fill="none" xmlns="http://www.w3.org/2000/svg">
<path d="M62.9615 149.147H51.6192L37.9621 125.956L24.3822 149.147H13.0398L0 94H12.4997L20.9872 132.859L37.8849 105.091H38.1164L54.8599 132.936L63.5016 94H76.0013L62.9615 149.147Z" fill="white"/>
<path d="M121.383 142.399C116.342 147.466 110.169 150 102.865 150C96.2804 150 91.0336 147.983 87.1242 143.95C83.3177 140.072 81.4145 135.056 81.4145 128.903C81.4145 122.646 83.2663 117.501 86.9699 113.468C90.6736 109.435 95.586 107.418 101.707 107.418C108.137 107.418 113.152 109.487 116.753 113.623C120.148 117.501 121.897 122.62 122 128.981H92.7568C92.7568 132.652 93.9142 135.573 96.229 137.745C98.338 139.71 100.884 140.693 103.868 140.693C107.88 140.693 111.404 139.09 114.438 135.884L121.383 142.399ZM109.809 121.612C108.574 117.941 105.951 116.105 101.939 116.105C100.19 116.105 98.5952 116.622 97.1549 117.657C95.7146 118.639 94.6601 119.958 93.9914 121.612H109.809Z" fill="white"/>
<path d="M175.792 121.079C183.105 121.079 186.761 118.342 186.761 112.868C186.761 110.5 186.035 108.658 184.583 107.342C182.975 105.868 179.967 105.132 175.559 105.132H165.057V121.079H175.792ZM201.774 149.816H187.305L174.859 131.816H165.057V149.816H153V94H175.326C191.247 94 199.207 100.132 199.207 112.395C199.207 120.921 195.24 126.737 187.305 129.842L201.774 149.816Z" fill="url(#paint0_linear_197_10502)"/>
<path d="M262.225 128.105C262.225 136.263 259.425 142.421 253.824 146.579C249.883 149.526 244.619 151 238.033 151C231.446 151 226.183 149.526 222.241 146.579C216.64 142.421 213.84 136.263 213.84 128.105V94H225.897V124.947C225.897 134.684 229.942 139.553 238.033 139.553C246.123 139.553 250.168 134.684 250.168 124.947V94H262.225V128.105Z" fill="url(#paint1_linear_197_10502)"/>
<path d="M315.433 149.816H275.838V94H287.895V138.684H315.433V149.816Z" fill="url(#paint2_linear_197_10502)"/>
<path d="M367 149.816H324.76V94H366.689V105.132H336.818V116.105H363.111V127.237H336.818V138.684H367V149.816Z" fill="url(#paint3_linear_197_10502)"/>
<path d="M0 58.9056V4.74922H20.4513C30.4463 4.74922 38.1091 7.76216 43.4397 13.788C47.899 18.8437 50.1287 25.0227 50.1287 32.3253C50.1287 39.2193 47.9503 45.092 43.5935 49.9433C38.1603 55.9182 30.2669 58.9056 19.9131 58.9056H0ZM19.4518 48.1049C26.0126 48.1049 30.8307 46.3431 33.9061 42.8195C36.3151 40.113 37.5196 36.6149 37.5196 32.3253C37.5196 27.4739 36.2126 23.5929 33.5985 20.6821C30.5231 17.2606 25.987 15.5498 19.99 15.5498H11.9171V48.1049H19.4518Z" fill="white"/>
<path d="M72.8679 58.9056H61.1814V18.9203H72.8679V58.9056ZM73.2523 14.0178H60.797V3.21721H73.2523V14.0178Z" fill="white"/>
<path d="M111.486 44.7345C113.485 42.794 114.485 40.3938 114.485 37.5341C114.485 34.7765 113.459 32.453 111.409 30.5635C109.41 28.6229 107.104 27.6527 104.49 27.6527C101.824 27.6527 99.5434 28.6229 97.6469 30.5635C95.8017 32.504 94.8791 34.8531 94.8791 37.6107C94.8791 40.4194 95.8017 42.794 97.6469 44.7345C99.4921 46.6751 101.773 47.6453 104.49 47.6453C107.155 47.6453 109.487 46.6751 111.486 44.7345ZM126.325 52.7009C126.325 58.6758 124.275 63.5271 120.174 67.255C115.92 71.085 110.282 73 103.259 73C96.3399 73 90.2916 70.6509 85.1147 65.9528L91.8806 59.0588C95.4685 61.9185 99.2102 63.3484 103.106 63.3484C106.437 63.3484 109.205 62.3015 111.409 60.2078C113.665 58.114 114.792 55.433 114.792 52.1647V50.7859H114.638C111.512 55.1266 107.078 57.297 101.337 57.297C96.3143 57.297 91.9831 55.4075 88.3439 51.6285C84.7047 47.8496 82.8851 43.1259 82.8851 37.4575C82.8851 31.8912 84.756 27.2186 88.4977 23.4397C92.0856 19.8139 96.3655 18.0011 101.337 18.0011C106.822 18.0011 111.204 20.1203 114.485 24.3589H114.638V18.9203H126.325V52.7009Z" fill="white"/>
<path d="M149.827 58.9056H138.141V18.9203H149.827V58.9056ZM150.212 14.0178H137.757V3.21721H150.212V14.0178Z" fill="white"/>
<path d="M186.908 58.9822C184.089 59.6971 180.988 60.0546 177.605 60.0546C169.096 60.0546 164.842 55.4841 164.842 46.3431V28.8783H159.46V18.9203H165.073L167.226 5.89822H176.529V18.9203H186.908V28.8783H176.529V45.3473C176.529 48.5645 178.092 50.1731 181.219 50.1731C182.244 50.1731 184.14 49.8157 186.908 49.1007V58.9822Z" fill="white"/>
<path d="M233.435 58.9056H221.902V56.3778H221.671C218.698 58.829 214.931 60.0546 210.369 60.0546C206.012 60.0546 202.296 58.88 199.221 56.531C195.838 53.9776 194.147 50.5306 194.147 46.1899C194.147 41.8493 195.787 38.4022 199.067 35.8489C202.091 33.5509 205.807 32.4019 210.215 32.4019C214.623 32.4019 218.468 33.5764 221.748 35.9255H221.979V34.0105C221.979 29.7719 219.262 27.6527 213.829 27.6527C209.267 27.6527 205.5 28.7506 202.527 30.9465L196.453 24.1291C201.63 20.0437 207.755 18.0011 214.828 18.0011C220.108 18.0011 224.439 19.2777 227.822 21.8311C231.564 24.6397 233.435 28.5974 233.435 33.7041V58.9056ZM219.288 49.9433C220.928 49.0752 221.748 47.8241 221.748 46.1899C221.748 44.5558 220.928 43.3047 219.288 42.4365C217.699 41.5173 215.7 41.0577 213.291 41.0577C208.473 41.0577 206.064 42.7685 206.064 46.1899C206.064 49.5603 208.473 51.2455 213.291 51.2455C215.7 51.2455 217.699 50.8115 219.288 49.9433Z" fill="white"/>
<path d="M256.663 58.9056H244.976V0H245.13L256.663 2.98741V58.9056Z" fill="white"/>
<path d="M349.736 59.212H338.434L324.826 36.3085L311.294 59.212H299.992L286.998 4.74922H299.454L307.911 43.1259L324.749 15.703H324.979L341.663 43.2025L350.274 4.74922H362.73L349.736 59.212Z" fill="white"/>
<path d="M411.717 39.0661C411.717 45.1941 409.641 50.2242 405.489 54.1563C401.389 58.0885 396.186 60.0546 389.882 60.0546C383.577 60.0546 378.375 58.0885 374.274 54.1563C370.174 50.2242 368.124 45.1941 368.124 39.0661C368.124 33.0913 370.123 28.0867 374.121 24.0525C378.17 20.0182 383.424 18.0011 389.882 18.0011C396.391 18.0011 401.696 20.0437 405.797 24.1291C409.744 28.1123 411.717 33.0913 411.717 39.0661ZM389.882 49.9433C392.855 49.9433 395.315 48.922 397.263 46.8793C399.211 44.8367 400.184 42.2322 400.184 39.0661C400.184 35.951 399.236 33.3466 397.34 31.2529C395.443 29.1591 392.957 28.1123 389.882 28.1123C386.858 28.1123 384.397 29.1591 382.501 31.2529C380.604 33.3466 379.656 35.951 379.656 39.0661C379.656 42.2322 380.604 44.8367 382.501 46.8793C384.449 48.922 386.909 49.9433 389.882 49.9433Z" fill="white"/>
<path d="M432.647 58.9056H420.961V18.9203H432.57V27.4995H432.724C435.492 21.1672 440.284 18.0011 447.101 18.0011V29.9507C442.437 29.9507 438.849 31.1763 436.338 33.6275C433.877 36.0787 432.647 39.5768 432.647 44.1217V58.9056Z" fill="white"/>
<path d="M466.068 58.9056H454.381V0H454.535L466.068 2.98741V58.9056Z" fill="white"/>
<path d="M497.4 50.4029C500.219 50.4029 502.603 49.3305 504.55 47.1857C506.498 45.0409 507.472 42.2578 507.472 38.8363C507.472 35.568 506.498 32.887 504.55 30.7933C502.603 28.6995 500.219 27.6527 497.4 27.6527C494.478 27.6527 492.095 28.6995 490.25 30.7933C488.456 32.836 487.559 35.5425 487.559 38.9129C487.559 42.3855 488.456 45.1686 490.25 47.2623C492.095 49.3561 494.478 50.4029 497.4 50.4029ZM519.235 58.9056H507.703V53.5435H507.549C504.422 57.8842 499.988 60.0546 494.248 60.0546C489.122 60.0546 484.791 58.1651 481.254 54.3861C477.513 50.4029 475.642 45.2197 475.642 38.8363C475.642 32.5551 477.513 27.4484 481.254 23.5163C484.791 19.8395 489.122 18.0011 494.248 18.0011C499.732 18.0011 504.115 20.1203 507.395 24.3589H507.549V0H507.703L519.235 2.98741V58.9056Z" fill="white"/>
<path d="M538 57.8486C538 65.4859 533.762 69.6682 525.285 70.3956L524.545 65.6223C528.896 65.2586 531.071 63.0993 531.071 59.1442H526.967V47.4155H538V57.8486Z" fill="white"/>
<defs>
<linearGradient id="paint0_linear_197_10502" x1="175.365" y1="220.316" x2="138.082" y2="136.107" gradientUnits="userSpaceOnUse">
<stop stop-color="#E128FF"/>
<stop offset="0.479167" stop-color="#00BBFF"/>
<stop offset="1" stop-color="#05F7AA"/>
</linearGradient>
<linearGradient id="paint1_linear_197_10502" x1="175.365" y1="220.316" x2="138.082" y2="136.107" gradientUnits="userSpaceOnUse">
<stop stop-color="#E128FF"/>
<stop offset="0.479167" stop-color="#00BBFF"/>
<stop offset="1" stop-color="#05F7AA"/>
</linearGradient>
<linearGradient id="paint2_linear_197_10502" x1="175.365" y1="220.316" x2="138.082" y2="136.107" gradientUnits="userSpaceOnUse">
<stop stop-color="#E128FF"/>
<stop offset="0.479167" stop-color="#00BBFF"/>
<stop offset="1" stop-color="#05F7AA"/>
</linearGradient>
<linearGradient id="paint3_linear_197_10502" x1="175.365" y1="220.316" x2="138.082" y2="136.107" gradientUnits="userSpaceOnUse">
<stop stop-color="#E128FF"/>
<stop offset="0.479167" stop-color="#00BBFF"/>
<stop offset="1" stop-color="#05F7AA"/>
</linearGradient>
</defs>
</svg>
