<svg width="117" height="89" viewBox="0 0 117 89" fill="none" xmlns="http://www.w3.org/2000/svg">
<circle cx="2.5" cy="2.5" r="2.5" fill="#05F5AD"/>
<circle cx="2.5" cy="30.5" r="2.5" fill="#05F5AD"/>
<circle cx="2.5" cy="58.5" r="2.5" fill="#05F5AD"/>
<circle cx="2.5" cy="86.5" r="2.5" fill="#05F5AD"/>
<circle cx="30.5" cy="2.5" r="2.5" fill="#05F5AD"/>
<circle cx="30.5" cy="30.5" r="2.5" fill="#05F5AD"/>
<circle cx="30.5" cy="58.5" r="2.5" fill="#05F5AD"/>
<circle cx="30.5" cy="86.5" r="2.5" fill="#05F5AD"/>
<circle cx="58.5" cy="2.5" r="2.5" fill="#05F5AD"/>
<circle cx="58.5" cy="30.5" r="2.5" fill="#05F5AD"/>
<circle cx="58.5" cy="58.5" r="2.5" fill="#05F5AD"/>
<circle cx="58.5" cy="86.5" r="2.5" fill="#05F5AD"/>
<circle cx="86.5" cy="2.5" r="2.5" fill="#05F5AD"/>
<circle cx="86.5" cy="30.5" r="2.5" fill="#05F5AD"/>
<circle cx="86.5" cy="58.5" r="2.5" fill="#05F5AD"/>
<circle cx="86.5" cy="86.5" r="2.5" fill="#05F5AD"/>
<circle cx="114.5" cy="2.5" r="2.5" fill="#05F5AD"/>
<circle cx="114.5" cy="30.5" r="2.5" fill="#05F5AD"/>
<circle cx="114.5" cy="58.5" r="2.5" fill="#05F5AD"/>
<circle cx="114.5" cy="86.5" r="2.5" fill="#05F5AD"/>
</svg>
