<svg width="86" height="65" viewBox="0 0 86 65" fill="none" xmlns="http://www.w3.org/2000/svg">
<g clip-path="url(#clip0_208_103)">
<path d="M25.3193 52.4111C24.7746 52.4111 24.3314 52.8566 24.3314 53.4039C24.3314 53.9433 24.7746 54.3823 25.3193 54.3823C25.8721 54.3823 26.3218 53.9433 26.3218 53.4039C26.3218 52.8472 25.8814 52.4111 25.3193 52.4111Z" fill="white"/>
<path d="M15.8249 62.8572H17.3034V57.7959H22.707V56.4202H17.3034V52.6202H23.205V51.2285H15.8249V62.8572Z" fill="white"/>
<path d="M26.044 54.8398H24.6097V62.8579H26.044V54.8398Z" fill="white"/>
<path d="M31.9627 54.7236C31.002 54.7236 30.1423 55.1935 29.583 56.0028V54.8398H28.1775V62.8578H29.5974V58.9363C29.5974 58.2914 29.7634 56.1868 31.9041 56.1868C32.0304 56.1868 32.1567 56.1993 32.2839 56.2118L32.4823 56.2315V54.7594L32.366 54.7397C32.2767 54.7254 32.0926 54.7236 31.9627 54.7236Z" fill="white"/>
<path d="M36.3262 58.1481C34.845 57.8372 34.6059 57.5746 34.6059 57.0654C34.6059 56.4794 35.2663 55.9846 36.0484 55.9846C36.8351 55.9846 37.3447 56.3508 37.7534 57.2102L37.8165 57.3424L38.9929 56.7046L38.9424 56.5884C38.3885 55.3414 37.4151 54.709 36.0484 54.709C34.6718 54.709 33.186 55.6433 33.186 57.1512C33.186 57.6246 33.3448 58.057 33.6452 58.4036C34.1404 58.9574 34.7683 59.1825 35.7525 59.4023C37.14 59.7203 37.6081 60.0204 37.6081 60.5885C37.6081 61.3264 36.8386 61.7123 36.0772 61.7123C34.9234 61.7123 34.412 60.9494 34.0944 60.283L34.0313 60.1526L32.8531 60.7904L32.9054 60.9048C33.527 62.2876 34.5996 62.9879 36.0917 62.9879C37.7741 62.9879 39.0425 61.9249 39.0425 60.5153C39.0425 60.0043 38.8359 59.5309 38.4462 59.145C37.9762 58.6626 37.342 58.3661 36.3262 58.1481Z" fill="white"/>
<path d="M42.5291 52.3213H41.1236V54.8385H39.6739V56.1141H41.1236V60.7181C41.1236 62.1545 41.9364 62.9138 43.4736 62.9138C43.6685 62.9138 44.1475 62.8727 44.4082 62.7905L44.5056 62.7601V61.5435L44.3333 61.5846C44.1926 61.6203 43.9553 61.6382 43.664 61.6382C42.8999 61.6382 42.5291 61.3273 42.5291 60.6895V56.1141H44.5056V54.8385H42.5291V52.3213Z" fill="white"/>
<path d="M49.71 55.6407C50.4867 55.6407 51.2544 55.9677 51.8155 56.5394L51.9111 56.6359L52.4912 56.0856L52.3938 55.9855C51.6676 55.2513 50.7149 54.8457 49.71 54.8457C47.4105 54.8457 45.8048 56.5072 45.8048 58.8851C45.8048 61.272 47.4105 62.9406 49.71 62.9406C50.7149 62.9406 51.6676 62.535 52.3938 61.8008L52.4894 61.7025L51.9292 61.1487L51.8308 61.2469C51.2463 61.8258 50.493 62.1456 49.71 62.1456C47.8832 62.1456 46.6076 60.8057 46.6076 58.8851C46.6076 56.9753 47.8832 55.6407 49.71 55.6407Z" fill="white"/>
<path d="M56.4054 54.8461C55.3977 54.8461 54.557 55.2427 54.0617 55.9305V52.5146H53.2588V62.8141H54.0617V57.86C54.0617 56.554 54.9954 55.6411 56.3323 55.6411C57.6431 55.6411 58.5578 56.529 58.5578 57.8028V62.8141H59.3616V57.7296C59.3616 56.0592 58.1185 54.8461 56.4054 54.8461Z" fill="white"/>
<path d="M64.5126 54.8457C62.3169 54.8457 60.4613 56.6966 60.4613 58.8851C60.4613 61.0826 62.3169 62.9406 64.5126 62.9406C66.7002 62.9406 68.5496 61.0826 68.5496 58.8851C68.5496 56.6966 66.7002 54.8457 64.5126 54.8457ZM67.7467 58.8851C67.7467 60.652 66.2654 62.1456 64.5126 62.1456C62.7517 62.1456 61.265 60.652 61.265 58.8851C61.265 57.1271 62.7517 55.6407 64.5126 55.6407C66.2654 55.6407 67.7467 57.1271 67.7467 58.8851Z" fill="white"/>
<path d="M70.4531 54.9736H69.6502V62.8148H70.4531V54.9736Z" fill="white"/>
<path d="M75.4597 55.6407C76.2365 55.6407 77.0041 55.9677 77.5653 56.5394L77.6609 56.6359L78.2409 56.0856L78.1435 55.9855C77.4173 55.2513 76.4647 54.8457 75.4597 54.8457C73.1972 54.8457 71.5545 56.5447 71.5545 58.8851C71.5545 61.272 73.1602 62.9406 75.4597 62.9406C76.4647 62.9406 77.4173 62.535 78.1435 61.8008L78.2391 61.7025L77.6789 61.1487L77.5806 61.2469C76.996 61.8258 76.2428 62.1456 75.4597 62.1456C73.6339 62.1456 72.3583 60.8057 72.3583 58.8851C72.3583 56.9753 73.6339 55.6407 75.4597 55.6407Z" fill="white"/>
<path d="M86 59.1317C86 56.5679 84.5007 54.8457 82.2698 54.8457C80.1128 54.8457 78.4223 56.6144 78.4223 58.8708C78.4223 61.0772 80.1841 62.9406 82.2698 62.9406C83.5336 62.9406 84.8724 62.4457 85.5246 61.74L85.6112 61.6471L85.0573 61.0522L84.9563 61.1629C84.388 61.7793 83.3839 62.1455 82.2698 62.1455C80.7579 62.1455 79.4327 60.8682 79.2531 59.2692H86V59.1317H86ZM79.2522 58.4742C79.429 56.8484 80.7028 55.6407 82.2698 55.6407C83.9179 55.6407 85.0501 56.7484 85.1881 58.4742H79.2522Z" fill="white"/>
<path d="M0 62.7102V56.627H2.76947C3.34863 56.627 3.81952 56.7502 4.17857 56.9968C4.59714 57.279 4.80644 57.6935 4.80644 58.2384C4.80644 58.5368 4.72345 58.8101 4.55746 59.0567C4.38967 59.305 4.18218 59.4711 3.9314 59.5569C4.75773 59.7874 5.17091 60.2876 5.17091 61.0612C5.17091 61.5239 5.00312 61.9062 4.66754 62.2028C4.29045 62.5405 3.74919 62.7102 3.04194 62.7102H0V62.7102ZM2.61613 59.1907C2.91203 59.1907 3.161 59.1156 3.36308 58.9656C3.56696 58.8155 3.66798 58.6083 3.66798 58.3438C3.66798 58.1187 3.58318 57.9383 3.41178 57.8025C3.24038 57.6667 3.01666 57.5988 2.7388 57.5988H1.08794V59.1907H2.61613ZM3.09424 61.7472C3.3775 61.7472 3.61025 61.6597 3.78887 61.4882C3.94043 61.3399 4.0162 61.1666 4.0162 60.9719C4.0162 60.4091 3.59221 60.1286 2.74602 60.1286H1.08794V61.7472H3.09424Z" fill="white"/>
<path d="M10.4807 61.9876C10.4807 62.6772 10.2769 63.231 9.87271 63.6491C9.46675 64.0671 8.91107 64.278 8.2038 64.278C7.42798 64.278 6.78928 63.9903 6.29133 63.4168L6.94626 62.788C7.32876 63.1846 7.73471 63.3829 8.1659 63.3829C8.54299 63.3829 8.8497 63.2489 9.08425 62.9809C9.32061 62.7129 9.43789 62.3663 9.43789 61.9393V61.6892C9.43247 61.6892 9.42886 61.6857 9.42886 61.6803H9.41983C9.07703 62.202 8.60072 62.461 7.99089 62.461C7.49653 62.461 7.10502 62.3145 6.81454 62.0233C6.50602 61.7124 6.35265 61.2748 6.35265 60.7066V58.2197H7.41354V60.0474C7.41354 60.5226 7.45324 60.8549 7.53442 61.0425C7.66793 61.3641 7.9476 61.5231 8.37339 61.5231C9.08245 61.5231 9.43789 61.0139 9.43789 59.9956V58.2197H10.4807V61.9876Z" fill="white"/>
<path d="M66.6826 45.2897C61.3218 45.2897 56.3459 43.151 52.6715 39.2676C49.3389 35.7458 47.5037 31.0637 47.5037 26.084V5.33813C47.5037 2.45707 49.8707 0.113281 52.7802 0.113281C55.6897 0.113281 58.0567 2.45707 58.0567 5.33813V26.2993C58.0567 28.5776 58.9549 30.7214 60.5855 32.3361C62.2164 33.9508 64.3816 34.8402 66.6826 34.84C66.748 34.84 66.8139 34.8393 66.8797 34.8378C71.5269 34.7346 75.3079 30.8381 75.3079 26.1518V5.33813C75.3079 2.45707 77.6749 0.113281 80.5844 0.113281C83.494 0.113281 85.8609 2.45707 85.8609 5.33813V26.2993C85.8609 31.3717 83.8661 36.1407 80.2438 39.7275C76.6214 43.3144 71.8055 45.2897 66.6826 45.2897Z" fill="white"/>
<path d="M66.6826 45.2897C61.3218 45.2897 56.3459 43.151 52.6715 39.2676C49.3389 35.7458 47.5037 31.0637 47.5037 26.084V5.33813C47.5037 2.45707 49.8707 0.113281 52.7802 0.113281C55.6897 0.113281 58.0567 2.45707 58.0567 5.33813V26.2993C58.0567 28.5776 58.9549 30.7214 60.5855 32.3361C62.2164 33.9508 64.3816 34.8402 66.6826 34.84C66.748 34.84 66.8139 34.8393 66.8797 34.8378C71.5269 34.7346 75.3079 30.8381 75.3079 26.1518V5.33813C75.3079 2.45707 77.6749 0.113281 80.5844 0.113281C83.494 0.113281 85.8609 2.45707 85.8609 5.33813V26.2993C85.8609 31.3717 83.8661 36.1407 80.2438 39.7275C76.6214 43.3144 71.8055 45.2897 66.6826 45.2897Z" fill="url(#paint0_linear_208_103)"/>
<path d="M75.3157 25.9229L75.3079 25.9093V26.1518C75.3079 30.8381 71.5269 34.7346 66.8797 34.8378C66.8139 34.8393 66.748 34.84 66.6826 34.84C64.3816 34.8402 62.2163 33.9509 60.5855 32.3361C58.9548 30.7215 58.0567 28.5776 58.0567 26.2993V5.33811C58.0567 2.45707 55.6898 0.113281 52.7802 0.113281C49.8707 0.113281 47.5037 2.45707 47.5037 5.33811V25.9229C47.5037 33.5278 53.7296 39.6928 61.4097 39.6928C69.0897 39.6928 75.3157 33.5278 75.3157 25.9229Z" fill="url(#paint1_linear_208_103)"/>
<path d="M30.1372 22.6941L30.1547 22.6758L44.0006 9.3428C44.2914 9.06358 44.5481 8.74779 44.7678 8.43198C45.3736 7.53753 45.6585 6.53044 45.6565 5.53778C45.6468 2.77066 43.4863 0.1114 40.2086 0.113313C38.7928 0.10849 37.4413 0.654413 36.4223 1.63167L29.9991 7.82735L29.9447 7.8803L26.2517 11.4398L21.3755 16.1171L18.5733 18.8226C16.3904 20.9341 16.3885 24.4108 18.5752 26.5203L36.3902 43.7575C36.8842 44.2446 37.487 44.6259 38.1278 44.8849C38.7685 45.1429 39.4647 45.2787 40.1638 45.2893C45.0362 45.2777 47.4583 39.4267 43.9656 36.055L30.1372 22.6941Z" fill="#C8C8C8"/>
<path d="M1.71583 36.0548L15.5449 22.6937C15.6506 22.5855 15.7563 22.4774 15.8441 22.3696C15.8797 22.3514 15.915 22.3153 15.9323 22.2796L15.9503 22.2793C16.2322 21.9911 16.5136 21.6674 16.7592 21.3443C18.1103 19.5846 18.8989 17.3906 18.8608 15.0143C18.8158 12.2126 17.6291 9.69473 15.7369 7.87988L19.4304 11.4401L24.3061 16.1171L27.1081 18.8222C29.2915 20.934 29.2937 24.4106 27.1063 26.5202L9.29118 43.7576C8.79749 44.2443 8.19454 44.6264 7.55387 44.8847C6.9132 45.1431 6.21674 45.2783 5.51829 45.2893C0.645862 45.2773 -1.77682 39.4267 1.71583 36.0548Z" fill="url(#paint2_linear_208_103)"/>
<path d="M0.0269295 5.53892C0.0362931 2.77174 2.19684 0.112645 5.47493 0.114287C6.88993 0.109651 8.24215 0.655969 9.26096 1.63323L15.6837 7.82897L15.7382 7.88128C17.6304 9.69615 18.8171 12.214 18.8621 15.0157C18.9003 17.392 18.1116 19.5861 16.7605 21.3457C16.5149 21.6688 16.2335 21.9925 15.9516 22.2807L15.9337 22.281C15.9163 22.3167 15.881 22.3528 15.8455 22.371C15.7576 22.4788 15.6519 22.5869 15.5462 22.6951L15.528 22.6776L1.6823 9.34421C1.39125 9.06493 1.13539 8.7497 0.915383 8.4339C0.309854 7.53882 0.0250609 6.53235 0.0269295 5.53892Z" fill="url(#paint3_linear_208_103)"/>
</g>
<defs>
<linearGradient id="paint0_linear_208_103" x1="66.6823" y1="45.8814" x2="66.6823" y2="6.72421" gradientUnits="userSpaceOnUse">
<stop stop-color="#0DD3A1"/>
<stop offset="0.2057" stop-color="#19E6A7"/>
<stop offset="0.5232" stop-color="#29FFB0"/>
<stop offset="1" stop-color="#A7FFAB"/>
</linearGradient>
<linearGradient id="paint1_linear_208_103" x1="61.4097" y1="40.6642" x2="61.4097" y2="8.87819" gradientUnits="userSpaceOnUse">
<stop stop-color="#00C3B3"/>
<stop offset="0.0637" stop-color="#06C5B2" stop-opacity="0.9363"/>
<stop offset="0.4397" stop-color="#23CCAF" stop-opacity="0.5603"/>
<stop offset="0.7648" stop-color="#35D1AE" stop-opacity="0.2352"/>
<stop offset="1" stop-color="#3BD3AD" stop-opacity="0"/>
</linearGradient>
<linearGradient id="paint2_linear_208_103" x1="24.3475" y1="14.2641" x2="4.17825" y2="34.9176" gradientUnits="userSpaceOnUse">
<stop stop-color="#27DFFF"/>
<stop offset="0.6622" stop-color="#0C94FF"/>
<stop offset="1" stop-color="#0072FF"/>
</linearGradient>
<linearGradient id="paint3_linear_208_103" x1="2.69861" y1="2.8916" x2="18.3474" y2="18.14" gradientUnits="userSpaceOnUse">
<stop stop-color="#27DFFF"/>
<stop offset="0.0685" stop-color="#24D6FF"/>
<stop offset="0.7087" stop-color="#0A81FF"/>
<stop offset="1" stop-color="#005FFF"/>
</linearGradient>
<clipPath id="clip0_208_103">
<rect width="86" height="64.1645" fill="white" transform="translate(0 0.113281)"/>
</clipPath>
</defs>
</svg>
